<?xml version="1.0" encoding="UTF-8" standalone="no"?>
<!-- Created with Inkscape (http://www.inkscape.org/) -->

<svg
   width="50in"
   height="50in"
   viewBox="0 0 1270 1270"
   version="1.1"
   id="svg1"
   inkscape:version="1.4.3 (0d15f75, 2025-12-25)"
   sodipodi:docname="sun_ring.svg"
   xmlns:inkscape="http://www.inkscape.org/namespaces/inkscape"
   xmlns:sodipodi="http://sodipodi.sourceforge.net/DTD/sodipodi-0.dtd"
   xmlns="http://www.w3.org/2000/svg"
   xmlns:svg="http://www.w3.org/2000/svg">
  <sodipodi:namedview
     id="namedview1"
     pagecolor="#ffffff"
     bordercolor="#000000"
     borderopacity="0.25"
     inkscape:showpageshadow="2"
     inkscape:pageopacity="0.0"
     inkscape:pagecheckerboard="0"
     inkscape:deskcolor="#d1d1d1"
     inkscape:document-units="mm"
     inkscape:zoom="0.16204811"
     inkscape:cx="2591.8229"
     inkscape:cy="2440.6332"
     inkscape:window-width="1728"
     inkscape:window-height="1052"
     inkscape:window-x="0"
     inkscape:window-y="65"
     inkscape:window-maximized="0"
     inkscape:current-layer="layer1" />
  <defs
     id="defs1" />
  <g
     inkscape:label="Layer 1"
     inkscape:groupmode="layer"
     id="layer1">
    <path
       d="M 875.92225,217.71074 933.27172,118.3783 A 596.54358,596.54358 0 0 0 789.39678,58.782975 L 759.71073,169.57415 a 481.84427,481.84427 0 0 1 116.21152,48.13659 z"
       style="fill:none;stroke:#000000;stroke-width:0.712814"
       id="path62" />
    <path
       d="m 975.71512,294.28488 81.10508,-81.10513 A 596.54358,596.54358 0 0 0 933.27172,118.3783 l -57.34947,99.33244 a 481.84427,481.84427 0 0 1 99.79287,76.57414 z"
       style="fill:none;stroke:#000000;stroke-width:0.712814"
       id="path61" />
    <path
       d="m 1052.2893,394.07775 99.3324,-57.34947 a 596.54358,596.54358 0 0 0 -94.8015,-123.54853 l -81.10508,81.10513 a 481.84427,481.84427 0 0 1 76.57418,99.79287 z"
       style="fill:none;stroke:#000000;stroke-width:0.712814"
       id="path60" />
    <path
       d="m 1100.4259,510.28927 110.7911,-29.68605 a 596.54358,596.54358 0 0 0 -59.5953,-143.87494 l -99.3324,57.34947 a 481.84427,481.84427 0 0 1 48.1366,116.21152 z"
       style="fill:none;stroke:#000000;stroke-width:0.712814"
       id="path59" />
    <path
       d="m 1116.8445,635 h 114.6989 A 596.54358,596.54358 0 0 0 1211.217,480.60322 l -110.7911,29.68605 A 481.84427,481.84427 0 0 1 1116.8445,635 Z"
       style="fill:none;stroke:#000000;stroke-width:0.712814"
       id="path58" />
    <path
       d="m 1100.4259,759.71073 110.7911,29.68605 A 596.54358,596.54358 0 0 0 1231.5434,635 h -114.6989 a 481.84427,481.84427 0 0 1 -16.4186,124.71022 z"
       style="fill:none;stroke:#000000;stroke-width:0.712814"
       id="path57" />
    <path
       d="m 1052.2893,875.92225 99.3324,57.34947 a 596.54358,596.54358 0 0 0 59.5953,-143.87494 l -110.7911,-29.68605 a 481.84427,481.84427 0 0 1 -48.1366,116.21152 z"
       style="fill:none;stroke:#000000;stroke-width:0.712814"
       id="path56" />
    <path
       d="m 975.71512,975.71512 81.10508,81.10508 a 596.54358,596.54358 0 0 0 94.8015,-123.54848 l -99.3324,-57.34947 a 481.84427,481.84427 0 0 1 -76.57418,99.79287 z"
       style="fill:none;stroke:#000000;stroke-width:0.712814"
       id="path55" />
    <path
       d="m 875.92225,1052.2893 57.34947,99.3324 a 596.54358,596.54358 0 0 0 123.54848,-94.8015 l -81.10508,-81.10508 a 481.84427,481.84427 0 0 1 -99.79287,76.57418 z"
       style="fill:none;stroke:#000000;stroke-width:0.712814"
       id="path54" />
    <path
       d="m 759.71073,1100.4259 29.68605,110.7911 a 596.54358,596.54358 0 0 0 143.87494,-59.5953 l -57.34947,-99.3324 a 481.84427,481.84427 0 0 1 -116.21152,48.1366 z"
       style="fill:none;stroke:#000000;stroke-width:0.712814"
       id="path53" />
    <path
       d="m 635,1116.8445 v 114.6989 A 596.54358,596.54358 0 0 0 789.39678,1211.217 L 759.71073,1100.4259 A 481.84427,481.84427 0 0 1 635,1116.8445 Z"
       style="fill:none;stroke:#000000;stroke-width:0.712814"
       id="path52" />
    <path
       d="M 510.28927,1100.4259 480.60322,1211.217 A 596.54358,596.54358 0 0 0 635,1231.5434 v -114.6989 a 481.84427,481.84427 0 0 1 -124.71022,-16.4186 z"
       style="fill:none;stroke:#000000;stroke-width:0.712814"
       id="path51" />
    <path
       d="m 394.07775,1052.2893 -57.34947,99.3324 a 596.54358,596.54358 0 0 0 143.87494,59.5953 l 29.68605,-110.7911 a 481.84427,481.84427 0 0 1 -116.21152,-48.1366 z"
       style="fill:none;stroke:#000000;stroke-width:0.712814"
       id="path50" />
    <path
       d="m 294.28488,975.71512 -81.10513,81.10508 a 596.54358,596.54358 0 0 0 123.54853,94.8015 l 57.34947,-99.3324 a 481.84427,481.84427 0 0 1 -99.79287,-76.57418 z"
       style="fill:none;stroke:#000000;stroke-width:0.712814"
       id="path49" />
    <path
       d="m 217.71074,875.92225 -99.33244,57.34947 a 596.54358,596.54358 0 0 0 94.80145,123.54848 l 81.10513,-81.10508 a 481.84427,481.84427 0 0 1 -76.57414,-99.79287 z"
       style="fill:none;stroke:#000000;stroke-width:0.712814"
       id="path48" />
    <path
       d="M 169.57415,759.71073 58.782975,789.39678 A 596.54358,596.54358 0 0 0 118.3783,933.27172 l 99.33244,-57.34947 A 481.84427,481.84427 0 0 1 169.57415,759.71073 Z"
       style="fill:none;stroke:#000000;stroke-width:0.712814"
       id="path47" />
    <path
       d="M 153.15551,635 H 38.456567 A 596.54358,596.54358 0 0 0 58.782975,789.39678 L 169.57415,759.71073 A 481.84427,481.84427 0 0 1 153.15551,635 Z"
       style="fill:none;stroke:#000000;stroke-width:0.712814"
       id="path46" />
    <path
       d="M 169.57415,510.28927 58.782975,480.60322 A 596.54358,596.54358 0 0 0 38.456567,635 H 153.15551 a 481.84427,481.84427 0 0 1 16.41864,-124.71022 z"
       style="fill:none;stroke:#000000;stroke-width:0.712814"
       id="path45" />
    <path
       d="M 217.71074,394.07775 118.3783,336.72828 A 596.54358,596.54358 0 0 0 58.782975,480.60322 l 110.791175,29.68605 a 481.84427,481.84427 0 0 1 48.13659,-116.21152 z"
       style="fill:none;stroke:#000000;stroke-width:0.712814"
       id="path44" />
    <path
       d="M 294.28488,294.28488 213.17975,213.17975 A 596.54358,596.54358 0 0 0 118.3783,336.72828 l 99.33244,57.34947 a 481.84427,481.84427 0 0 1 76.57414,-99.79287 z"
       style="fill:none;stroke:#000000;stroke-width:0.712814"
       id="path43" />
    <path
       d="M 394.07775,217.71074 A 481.84427,481.84427 0 0 1 510.28927,169.57415 L 480.60322,58.782975 A 596.54358,596.54358 0 0 0 336.72828,118.3783 Z"
       style="fill:none;stroke:#000000;stroke-width:0.712814"
       id="path42" />
    <path
       d="M 394.07775,217.71074 336.72828,118.3783 a 596.54358,596.54358 0 0 0 -123.54853,94.80145 l 81.10513,81.10513 a 481.84427,481.84427 0 0 1 99.79287,-76.57414 z"
       style="fill:none;stroke:#000000;stroke-width:0.712814"
       id="path41" />
    <path
       d="M 635,38.456567 A 596.54358,596.54358 0 0 0 480.60322,58.782975 L 510.28927,169.57415 A 481.84427,481.84427 0 0 1 635,153.15551 Z"
       style="fill:none;stroke:#000000;stroke-width:0.712814"
       id="path16" />
    <path
       d="M 635,38.456567 V 153.15551 a 481.84427,481.84427 0 0 1 124.71022,16.41864 L 789.39678,58.782975 A 596.54358,596.54358 0 0 0 635,38.456567 Z"
       style="fill:none;stroke:#000000;stroke-width:0.712814"
       id="path15" />
  </g>
</svg>
